<svg id="Camada_1" data-name="Camada 1" xmlns="http://www.w3.org/2000/svg" viewBox="0 0 185.91 185.58"><title>exploit icon</title><g id="LtQsgd"><path d="M.05,85.21c.61-3.47,1.18-6.94,1.85-10.39C9,38.07,38.21,9.19,75.15,1.77,123.68-8,174.67,23.37,184.42,76.22c9.28,50.24-24.25,98.53-74.65,107.84-2.9.54-5.8,1-8.71,1.52H85.41c-3.53-.62-7.07-1.19-10.59-1.86-36.44-7-66-36.53-72.91-72.81-.66-3.51-1.24-7-1.86-10.55ZM85.42,7.62C45.07,10.57,11,44.09,7.77,84.74h10.1c4.87,0,8.25,3.22,8.26,7.8s-3.37,7.79-8.24,7.81H7.51C9.88,122.62,19,141.21,35.36,156.11c14.11,12.87,30.8,20.07,50.06,22V167.63a7.7,7.7,0,0,1,7.74-8.07c4.62,0,7.87,3.33,7.9,8.16v10.14c41.8-3,75.14-39.37,77.11-77.49h-2.81c-2.68,0-5.37,0-8.06,0a7.8,7.8,0,0,1,0-15.58c3.67-.08,7.35,0,11,0-3.78-42.43-39-74.28-77.26-77V18.17a7.64,7.64,0,0,1-7.33,7.94,4.68,4.68,0,0,1-.53,0c-4.49,0-7.74-3.37-7.77-8C85.4,14.6,85.42,11.22,85.42,7.62Z" transform="translate(-0.05 0)"/><path d="M90.21,31.87c.3-1.79-.3-4.59,2.9-4.49,3,.08,2.44,2.73,2.65,4.51,33.57,5.12,52.75,24.28,58,58,1.53.39,4.78-.63,4.56,2.89-.17,2.87-2.83,2.34-4.56,2.4-5.1,33.55-24.23,52.77-57.92,58-.49,1.54.47,4.62-2.93,4.53-3.2-.08-2.22-3-2.85-5A62,62,0,0,1,32.73,95.36c-2-.48-5.22.47-5-3,.17-2.94,2.9-2.22,4.58-2.4C37.32,56.34,56.52,37.19,90.21,31.87ZM147.93,90C146.13,58.57,117.55,37.72,95.82,38c0,.67-.11,1.36-.12,2,0,2.21.07,4.43-.09,6.62a2.42,2.42,0,0,1-2.34,2.53H93a2.5,2.5,0,0,1-2.64-2.48,22.4,22.4,0,0,1-.07-2.84v-6c-27.1.8-51.6,25.93-52,52.08,2.67,0,5.35.06,8,0,2-.06,3.42.63,3.38,2.68s-1.45,2.58-3.31,2.54c-2.74-.06-5.49,0-8.24,0C39.77,125.79,67.77,147.25,90.3,147v-2.53c0-2-.07-4.11.09-6.15a2.43,2.43,0,0,1,2.34-2.52H93a2.49,2.49,0,0,1,2.64,2.47,19.21,19.21,0,0,1,.07,2.84v6c27.5-.85,51.69-26.4,52-52.06h-8.26c-1.9,0-3.18-.82-3.12-2.72s1.29-2.53,3.09-2.49C142.2,90,145,90,147.93,90Z" transform="translate(-0.05 0)"/><path d="M70,110.92a7.34,7.34,0,0,0-5,6.54c-.16,1.85-.86,3.2-2.76,3.11-2.1-.09-2.66-1.67-2.47-3.56a12.66,12.66,0,0,1,7.71-10.78c.71-.33,1.46-.56,2.28-.86v-5.08H59.23c-3.22,0-4.79-.89-4.55-2.77.35-2.81,2.59-2.47,4.55-2.47H69.9a21.63,21.63,0,0,0-.07-4.18c-.12-.61-1-1.27-1.63-1.55-4.93-2.1-7.82-5.7-8.37-11.07-.18-1.71.13-3.29,2.22-3.5s2.81,1.11,3,3.06a7.41,7.41,0,0,0,5.17,6.58,13.63,13.63,0,0,1,10.24-9.66c-.88-4.83.56-8.8,4.38-12.56-1.26-1.11-2.52-2.14-3.69-3.27s-1.42-2.54-.24-3.76,2.69-1,4,.1a1.15,1.15,0,0,1,.33.33c2.4,4.32,6.6,4,10.62,4a2.72,2.72,0,0,0,1.58-.79c1.11-1,2.16-2.08,3.2-3.16,1.3-1.35,2.81-2.07,4.33-.63s.91,3-.51,4.27c-1,.93-2.17,1.79-3.36,2.75,3.76,3.76,5.35,7.68,4.43,12.64,5,1.32,8.57,4.37,10.13,9.43A6.68,6.68,0,0,0,121,78c.16-1.91.7-3.27,2.87-3.22,1.78,0,2.63,1.35,2.33,3.86a12.4,12.4,0,0,1-7,10c-3.49,1.81-3.5,1.79-2.86,6.41h12.19a2.46,2.46,0,0,1,2.78,2.56,2.51,2.51,0,0,1-2.38,2.65h-.36c-3.32.08-6.64,0-10,0-.76,0-1.53.07-2.4.11v5c5,1.55,8.46,4.64,9.72,9.88a6.48,6.48,0,0,1,.22,1.15c.27,2.53-.56,4.17-2.3,4.19-2.25,0-2.71-1.49-2.93-3.46a7.3,7.3,0,0,0-5-6.24c-1.2,6.55-4.24,11.89-9.66,15.7a22.3,22.3,0,0,1-14,4.15C81.05,130.34,73,123.21,70,110.92Zm20.09-31c-2.62,0-5.07,0-7.5,0-4,.11-7.2,2.9-7.27,6.91-.13,7.81-.24,15.63.14,23.42.36,7.4,7.68,14.48,14.8,14.77v-21.7c.08-1.78.78-3.21,2.74-3.17s2.63,1.51,2.64,3.28v21.69c7.42-.69,14.4-7.41,14.78-14.73.42-7.86.25-15.76.15-23.64a6.43,6.43,0,0,0-5.28-6.46c-3.11-.46-6.35-.1-9.54-.1-.26,2.07.16,4.68-2.86,4.64s-2.44-2.72-2.8-4.9ZM93,74.62h0c1.58,0,3.16.07,4.74,0,2.25-.13,3.23-1.45,2.83-3.66a7.63,7.63,0,0,0-15.06.13c-.32,2.12.61,3.38,2.75,3.52,1.56.1,3.16,0,4.74,0Z" transform="translate(-0.05 0)"/><circle cx="92.96" cy="91.99" r="3.11"/></g></svg>